<svg xmlns="http://www.w3.org/2000/svg" width="300" height="300" viewBox="0 0 300 300">
  <defs>
    <pattern id="leafPattern" patternUnits="userSpaceOnUse" width="100" height="100">
      <path d="M25,25 Q40,10 55,25 Q70,40 55,55 Q40,70 25,55 Q10,40 25,25 Z" 
            fill="none" stroke="#b2c8a5" stroke-width="1" opacity="0.3" />
      <path d="M75,75 Q90,60 105,75 Q120,90 105,105 Q90,120 75,105 Q60,90 75,75 Z" 
            fill="none" stroke="#a1c6d7" stroke-width="1" opacity="0.3" />
      <path d="M25,75 Q30,65 40,70 Q50,75 45,85 Q40,95 30,90 Q20,85 25,75 Z" 
            fill="none" stroke="#b2c8a5" stroke-width="1" opacity="0.2" />
    </pattern>
  </defs>
  <rect width="100%" height="100%" fill="url(#leafPattern)" />
</svg>
